<svg width="760" height="168" viewBox="0 0 760 168" fill="none" xmlns="http://www.w3.org/2000/svg">
<rect width="187" height="168" rx="9.64286" fill="black"/>
<path d="M94.77 129.693C87.7499 129.693 81.2699 128.806 75.3299 127.031C69.4671 125.18 64.4142 122.519 60.1714 119.047C55.9285 115.499 52.6499 111.101 50.3357 105.856C48.0214 100.533 46.8642 94.4385 46.8642 87.5728C46.8642 81.4785 48.0985 75.8856 50.5671 70.7942C53.1128 65.6256 56.6614 61.1514 61.2128 57.3714C65.7642 53.5914 71.1642 50.6599 77.4128 48.5771C83.6614 46.4942 90.5271 45.4528 98.0099 45.4528C103.873 45.4528 109.273 46.1085 114.21 47.4199C119.224 48.6542 123.583 50.2742 127.286 52.2799C131.066 54.2856 134.19 56.4071 136.659 58.6442L123.004 73.8028C120.921 72.2599 118.607 70.8714 116.061 69.6371C113.593 68.3256 110.854 67.2842 107.846 66.5128C104.837 65.6642 101.443 65.2399 97.6628 65.2399C93.8828 65.2399 90.3342 65.8185 87.0171 66.9756C83.7771 68.0556 80.9614 69.5985 78.5699 71.6042C76.1785 73.5328 74.2885 75.8856 72.8999 78.6628C71.5885 81.3628 70.9328 84.3328 70.9328 87.5728C70.9328 91.6614 71.6271 95.1328 73.0157 97.9871C74.4814 100.764 76.4485 103.04 78.9171 104.814C81.3857 106.589 84.2399 107.9 87.4799 108.749C90.7199 109.52 94.0757 109.906 97.5471 109.906C101.096 109.906 104.297 109.559 107.151 108.864C110.083 108.17 112.629 107.206 114.789 105.971C116.949 104.737 118.607 103.271 119.764 101.574C120.921 99.7999 121.5 97.8328 121.5 95.6728V93.1271L124.624 98.6814H95.4642V82.2499H142.907C142.984 83.3299 143.061 84.7185 143.139 86.4156C143.216 88.0356 143.254 89.5399 143.254 90.9285C143.331 92.3171 143.37 93.2042 143.37 93.5899C143.37 99.4528 142.213 104.621 139.899 109.096C137.584 113.57 134.267 117.35 129.947 120.436C125.704 123.444 120.613 125.759 114.673 127.379C108.733 128.921 102.099 129.693 94.77 129.693Z" fill="white"/>
<path d="M205.86 127L244.624 46H264.643L303.291 127H280.149L259.32 83.8386C258.394 81.91 257.584 80.1743 256.89 78.6314C256.196 77.0114 255.579 75.4686 255.039 74.0029C254.499 72.5371 253.959 71.0714 253.419 69.6057C252.956 68.14 252.531 66.6357 252.146 65.0929L256.659 64.9771C256.196 66.6743 255.694 68.2943 255.154 69.8371C254.691 71.38 254.113 72.8843 253.419 74.35C252.801 75.8157 252.146 77.32 251.451 78.8629C250.757 80.4057 250.024 82.0643 249.253 83.8386L228.54 127H205.86ZM224.259 114.503L231.317 98.3029H277.834L281.537 114.503H224.259ZM325.483 127V46H348.395V107.213H396.648V127H325.483ZM439.064 107.213L432.468 89.2771L485.465 46H513.468L439.064 107.213ZM424.021 127V46H446.933V127H424.021ZM487.433 127L454.223 86.1529L467.993 71.6886L514.51 127H487.433ZM570.195 127V89.9714L572.162 98.1871L530.852 46H558.392L588.709 85.8057H575.286L604.446 46H630.366L592.527 95.9886L593.337 89.0457V127H570.195ZM652.512 127V46H673.919L726.222 99.9229L722.403 98.7657C721.94 95.6029 721.593 92.71 721.362 90.0871C721.13 87.4643 720.899 85.0343 720.667 82.7971C720.513 80.4829 720.397 78.2843 720.32 76.2014C720.243 74.1186 720.166 71.9971 720.089 69.8371C720.089 67.6771 720.089 65.4014 720.089 63.01V46H742.19V127H720.552L665.24 69.1429L672.299 71.11C672.607 72.5757 672.839 74.08 672.993 75.6229C673.225 77.0886 673.417 78.67 673.572 80.3671C673.803 81.9871 673.996 83.8771 674.15 86.0371C674.382 88.1971 674.497 90.6657 674.497 93.4429C674.575 96.22 674.613 99.3829 674.613 102.931V127H652.512Z" fill="black"/>
<rect x="175" y="157" width="585" height="11" fill="black"/>
<rect x="175" width="585" height="11" fill="black"/>
</svg>
